<svg width="21" height="21" viewBox="0 0 21 21" fill="none" xmlns="http://www.w3.org/2000/svg">
<path d="M19.6992 9.71149H11.2885V1.30081C11.2885 0.865338 10.9355 0.512313 10.5 0.512313C10.0645 0.512313 9.71149 0.865338 9.71149 1.30081V9.71149H1.30081C0.865338 9.71149 0.512313 10.0645 0.512313 10.5C0.512313 10.9355 0.865338 11.2885 1.30081 11.2885H9.71149V19.6992C9.71149 20.1347 10.0645 20.4877 10.5 20.4877C10.9355 20.4877 11.2885 20.1347 11.2885 19.6992V11.2885H19.6992C20.1347 11.2885 20.4877 10.9355 20.4877 10.5C20.4877 10.0645 20.1347 9.71149 19.6992 9.71149Z" fill="white" stroke="white"/>
</svg>
