<svg width="32" height="32" viewBox="0 0 32 32" fill="none" xmlns="http://www.w3.org/2000/svg">
<g filter="url(#filter0_d_293_3255)">
<path d="M17.0621 0.439185C16.7804 0.157975 16.3984 0 16 0C15.6016 0 15.2196 0.157975 14.9379 0.439185L4.42172 10.9393C4.14806 11.2222 3.99663 11.6011 4.00006 11.9944C4.00348 12.3877 4.16148 12.764 4.44002 13.0421C4.71856 13.3202 5.09535 13.478 5.48925 13.4814C5.88315 13.4848 6.26264 13.3336 6.54598 13.0604L6.98615 12.6208V22.5C6.98615 22.8978 7.14443 23.2793 7.42617 23.5607C7.70791 23.842 8.09002 24 8.48846 24H11.4931C11.8915 24 12.2736 23.842 12.5554 23.5607C12.8371 23.2793 12.9954 22.8978 12.9954 22.5V19.4999C12.9954 19.1021 13.1537 18.7206 13.4354 18.4393C13.7171 18.158 14.0993 17.9999 14.4977 17.9999H17.5023C17.9007 17.9999 18.2829 18.158 18.5646 18.4393C18.8463 18.7206 19.0046 19.1021 19.0046 19.4999V22.5C19.0046 22.8978 19.1629 23.2793 19.4446 23.5607C19.7264 23.842 20.1085 24 20.5069 24H23.5115C23.91 24 24.2921 23.842 24.5738 23.5607C24.8556 23.2793 25.0138 22.8978 25.0138 22.5V12.6208L25.454 13.0604C25.7374 13.3336 26.1168 13.4848 26.5107 13.4814C26.9046 13.478 27.2814 13.3202 27.56 13.0421C27.8385 12.764 27.9965 12.3877 27.9999 11.9944C28.0034 11.6011 27.8519 11.2222 27.5783 10.9393L17.0621 0.439185Z" fill="white"/>
</g>
<defs>
<filter id="filter0_d_293_3255" x="0" y="0" width="32" height="32" filterUnits="userSpaceOnUse" color-interpolation-filters="sRGB">
<feFlood flood-opacity="0" result="BackgroundImageFix"/>
<feColorMatrix in="SourceAlpha" type="matrix" values="0 0 0 0 0 0 0 0 0 0 0 0 0 0 0 0 0 0 127 0" result="hardAlpha"/>
<feOffset dy="4"/>
<feGaussianBlur stdDeviation="2"/>
<feComposite in2="hardAlpha" operator="out"/>
<feColorMatrix type="matrix" values="0 0 0 0 0 0 0 0 0 0 0 0 0 0 0 0 0 0 0.6 0"/>
<feBlend mode="normal" in2="BackgroundImageFix" result="effect1_dropShadow_293_3255"/>
<feBlend mode="normal" in="SourceGraphic" in2="effect1_dropShadow_293_3255" result="shape"/>
</filter>
</defs>
</svg>
