<svg width="35" height="35" viewBox="0 0 35 35" fill="none" xmlns="http://www.w3.org/2000/svg">
<path d="M7.52262 16.7577C7.41547 18.7936 7.53865 20.9606 5.71978 22.3248C4.87322 22.9597 4.375 23.9561 4.375 25.0143C4.375 26.4699 5.51513 27.7083 7 27.7083H28C29.4849 27.7083 30.625 26.4699 30.625 25.0143C30.625 23.9561 30.1268 22.9597 29.2802 22.3248C27.4614 20.9606 27.5845 18.7936 27.4774 16.7577C27.1981 11.4512 22.8139 7.29167 17.5 7.29167C12.1861 7.29167 7.80191 11.4512 7.52262 16.7577Z" stroke="black" stroke-width="1.5" stroke-linecap="round" stroke-linejoin="round"/>
<path d="M15.3125 4.5573C15.3125 5.76542 16.2919 7.29167 17.5 7.29167C18.7081 7.29167 19.6875 5.76542 19.6875 4.5573C19.6875 3.34917 18.7081 2.91667 17.5 2.91667C16.2919 2.91667 15.3125 3.34917 15.3125 4.5573Z" stroke="black" stroke-width="1.5"/>
<path d="M21.875 27.7083C21.875 30.1246 19.9162 32.0833 17.5 32.0833C15.0838 32.0833 13.125 30.1246 13.125 27.7083" stroke="black" stroke-width="1.5" stroke-linecap="round" stroke-linejoin="round"/>
</svg>
