<svg width="25" height="24" viewBox="0 0 25 24" fill="none" xmlns="http://www.w3.org/2000/svg">
<path d="M24.2347 11.9885C24.2386 14.2172 23.5456 16.396 22.245 18.245C21.1724 19.7754 19.7221 21.0294 18.0225 21.8961C16.3228 22.7628 14.4261 23.2156 12.5 23.2143C10.5739 23.2156 8.67722 22.7628 6.97754 21.8961C5.27787 21.0294 3.82761 19.7754 2.75501 18.245C1.73373 16.7887 1.08334 15.1237 0.855949 13.3835C0.628561 11.6434 0.83051 9.87649 1.44561 8.22447C2.0607 6.57245 3.07183 5.08126 4.39795 3.87045C5.72406 2.65964 7.32827 1.76288 9.08196 1.25208C10.8357 0.741266 12.6901 0.630611 14.4965 0.92898C16.303 1.22735 18.0112 1.92644 19.4844 2.97022C20.9575 4.014 22.1545 5.37342 22.9794 6.93951C23.8044 8.50561 24.2343 10.2348 24.2347 11.9885Z" stroke="black" stroke-width="1.5"/>
<path d="M14.163 7.42997C14.163 8.29303 13.418 8.99349 12.5 8.99349V10.8697C13.4703 10.8697 14.4009 10.5073 15.087 9.86225C15.7731 9.21717 16.1586 8.34225 16.1586 7.42997H14.163ZM12.5 8.99349C11.582 8.99349 10.837 8.29303 10.837 7.42997H8.84143C8.84143 8.34225 9.22689 9.21717 9.913 9.86225C10.5991 10.5073 11.5297 10.8697 12.5 10.8697V8.99349ZM10.837 7.42997C10.837 6.5669 11.582 5.86644 12.5 5.86644V3.9902C11.5297 3.9902 10.5991 4.35261 9.913 4.99769C9.22689 5.64277 8.84143 6.51769 8.84143 7.42997H10.837ZM12.5 5.86644C13.418 5.86644 14.163 6.5669 14.163 7.42997H16.1586C16.1586 6.51769 15.7731 5.64277 15.087 4.99769C14.4009 4.35261 13.4703 3.9902 12.5 3.9902V5.86644ZM3.40812 18.5073L2.45157 18.2396L2.29592 18.7299L2.65113 19.1177L3.40812 18.5073ZM21.5919 18.5073L22.3502 19.1189L22.7041 18.7311L22.5484 18.2396L21.5919 18.5073ZM8.50883 15.873H16.4912V13.9968H8.50883V15.873ZM8.50883 13.9968C7.14798 13.9968 5.82347 14.4098 4.73217 15.1742C3.64087 15.9386 2.84104 17.0136 2.45157 18.2396L4.36467 18.7749C4.63146 17.9364 5.17878 17.2012 5.92536 16.6784C6.67194 16.1556 7.57794 15.8732 8.50883 15.873V13.9968ZM12.5 21.5017C10.9161 21.5034 9.35059 21.182 7.9116 20.5596C6.47262 19.9373 5.19439 19.0288 4.16511 17.8968L2.65113 19.1177C3.86772 20.4548 5.37822 21.5292 7.07852 22.2645C8.77882 22.9997 10.6285 23.3796 12.5 23.378V21.5017ZM16.4912 15.873C18.4468 15.873 20.1032 17.0963 20.6353 18.7749L22.5484 18.2396C22.159 17.0136 21.3591 15.9386 20.2678 15.1742C19.1765 14.4098 17.852 13.9968 16.4912 13.9968V15.873ZM20.8349 17.8968C19.8056 19.0288 18.5274 19.9373 17.0884 20.5596C15.6494 21.182 14.0839 21.5034 12.5 21.5017V23.378C14.3715 23.3796 16.2212 22.9997 17.9215 22.2645C19.6218 21.5292 21.1336 20.456 22.3502 19.1189L20.8349 17.8968Z" fill="black"/>
</svg>
