<svg width="9" height="13" viewBox="0 0 9 13" fill="none" xmlns="http://www.w3.org/2000/svg">
<g clip-path="url(#clip0_298_3294)">
<path d="M-7.72516e-06 6.49998C-7.72516e-06 6.26699 0.0976934 6.03403 0.292701 5.8564L6.43215 0.266684C6.82269 -0.0888946 7.4559 -0.0888946 7.84629 0.266684C8.23667 0.62212 8.23667 1.19852 7.84629 1.55412L2.41377 6.49998L7.8461 11.4459C8.23649 11.8014 8.23649 12.3778 7.8461 12.7332C7.45571 13.0889 6.82251 13.0889 6.43196 12.7332L0.292499 7.14355C0.0974713 6.96582 -7.72516e-06 6.73288 -7.72516e-06 6.49997V6.49998Z" fill="#222B45"/>
</g>
<defs>
<clipPath id="clip0_298_3294">
<rect width="12.8388" height="8.03819" fill="white" transform="matrix(0 1.01255 -1.01255 0 8.13908 0)"/>
</clipPath>
</defs>
</svg>
