<svg width="24" height="24" viewBox="0 0 24 24" fill="none" xmlns="http://www.w3.org/2000/svg">
<path fill-rule="evenodd" clip-rule="evenodd" d="M18.3189 14.433C19.5659 12.8254 20.1536 10.803 19.9624 8.77748C19.7713 6.7519 18.8156 4.87524 17.2899 3.52927C15.7641 2.1833 13.783 1.46913 11.7494 1.53206C9.71575 1.59499 7.78251 2.43028 6.34292 3.86801C4.90207 5.30674 4.06405 7.24073 3.99962 9.27588C3.93518 11.311 4.6492 13.2942 5.99615 14.8211C7.3431 16.3481 9.22162 17.304 11.2489 17.4941C13.2762 17.6842 15.2996 17.094 16.9069 15.844L16.9499 15.889L21.1919 20.132C21.2848 20.2249 21.3951 20.2986 21.5165 20.3489C21.6379 20.3992 21.768 20.4251 21.8994 20.4251C22.0308 20.4251 22.1609 20.3992 22.2823 20.3489C22.4037 20.2986 22.514 20.2249 22.6069 20.132C22.6998 20.0391 22.7735 19.9288 22.8238 19.8074C22.8741 19.686 22.9 19.5559 22.9 19.4245C22.9 19.2931 22.8741 19.163 22.8238 19.0416C22.7735 18.9202 22.6998 18.8099 22.6069 18.717L18.3639 14.475C18.3493 14.4606 18.3343 14.4466 18.3189 14.433ZM16.2429 5.28301C16.8075 5.83849 17.2566 6.50026 17.5641 7.23015C17.8717 7.96004 18.0317 8.7436 18.0349 9.53563C18.0381 10.3277 17.8845 11.1125 17.5829 11.8449C17.2813 12.5772 16.8377 13.2426 16.2776 13.8027C15.7176 14.3628 15.0521 14.8064 14.3198 15.108C13.5874 15.4096 12.8026 15.5632 12.0105 15.56C11.2185 15.5568 10.4349 15.3968 9.70505 15.0892C8.97517 14.7816 8.3134 14.3326 7.75792 13.768C6.64784 12.6397 6.02857 11.1185 6.03502 9.53563C6.04146 7.95281 6.67309 6.43666 7.79233 5.31742C8.91156 4.19819 10.4277 3.56656 12.0105 3.56011C13.5934 3.55367 15.1146 4.17293 16.2429 5.28301Z" fill="white"/>
</svg>
