<svg width="9" height="13" viewBox="0 0 9 13" fill="none" xmlns="http://www.w3.org/2000/svg">
<g clip-path="url(#clip0_82_1053)">
<path d="M2.31755e-05 6.49998C2.31755e-05 6.26699 0.0977243 6.03403 0.292732 5.8564L6.43218 0.266684C6.82273 -0.0888946 7.45594 -0.0888946 7.84633 0.266684C8.2367 0.62212 8.2367 1.19852 7.84633 1.55412L2.4138 6.49998L7.84613 11.4459C8.23652 11.8014 8.23652 12.3778 7.84613 12.7332C7.45574 13.0889 6.82254 13.0889 6.43199 12.7332L0.29253 7.14355C0.0975022 6.96582 2.31755e-05 6.73288 2.31755e-05 6.49997V6.49998Z" fill="#222B45"/>
</g>
<defs>
<clipPath id="clip0_82_1053">
<rect width="12.8388" height="8.03819" fill="white" transform="matrix(0 1.01255 -1.01255 0 8.13911 0)"/>
</clipPath>
</defs>
</svg>
