<svg width="17" height="17" viewBox="0 0 17 17" fill="none" xmlns="http://www.w3.org/2000/svg">
<path d="M6.95013 13.9003C8.35429 13.9003 9.67013 13.4764 10.7652 12.7522L14.6332 16.6291C14.8894 16.8764 15.2161 17 15.5694 17C16.3023 17 16.841 16.426 16.841 15.7018C16.841 15.3662 16.7262 15.0395 16.479 14.7922L12.6374 10.933C13.4322 9.8026 13.9003 8.43377 13.9003 6.95013C13.9003 3.12623 10.774 0 6.95013 0C3.13506 0 0 3.12623 0 6.95013C0 10.774 3.12623 13.9003 6.95013 13.9003ZM6.95013 12.0457C4.15065 12.0457 1.85455 9.74961 1.85455 6.95013C1.85455 4.15065 4.15065 1.85455 6.95013 1.85455C9.74961 1.85455 12.0457 4.15065 12.0457 6.95013C12.0457 9.74961 9.74961 12.0457 6.95013 12.0457Z" fill="#3C3C43" fill-opacity="0.6"/>
</svg>
